<svg xmlns="http://www.w3.org/2000/svg" version="1.1" 
xmlns:xlink="http://www.w3.org/1999/xlink" xmlns:svgjs="http://svgjs.dev/svgjs" 
preserveAspectRatio="xMidYMid meet" viewBox="0 0 600 600" >
<path d="M3.534031391143799,213.61256408691406C-3.2722513675689697,165.18324279785156,-17.015706141789753,104.18848292032878,5.890052318572998,73.82199096679688C28.79581077893575,43.45549901326497,89.65967933336893,35.34031422932943,140.9685821533203,31.413612365722656C192.2774849732717,27.486910502115887,248.2984441121419,49.47643915812174,313.74346923828125,50.26177978515625C379.1884943644206,51.04712041219076,485.99476114908856,28.403143564860027,533.6387329101562,36.12565612792969C581.282704671224,43.84816869099935,594.7643636067709,62.17277272542318,599.6072998046875,96.59685516357422C604.4502360026041,131.02093760172525,563.0890197753906,195.41884231567383,562.6963500976562,242.67015075683594C562.3036804199219,289.92145919799805,629.1884562174479,357.0680567423503,597.2512817382812,380.1047058105469C565.3141072591146,403.14135487874347,436.38743591308594,374.2146504720052,371.07330322265625,380.8900451660156C305.75917053222656,387.56543986002606,259.4240779876709,422.90576171875,205.36648559570312,420.1570739746094C151.30889320373535,417.40838623046875,80.36649123827615,398.8220036824544,46.72774887084961,364.3979187011719C13.089006503423057,329.97383371988934,10.340314149856567,262.04188537597656,3.534031391143799,213.61256408691406C-3.2722513675689697,165.18324279785156,-17.015706141789753,104.18848292032878,5.890052318572998,73.82199096679688" 
fill="var(--bulletColor, #ef5a5a)"
transform="matrix(0.95,0,0,0.95,14.97717010974884,11.281339263916038)"></path></svg>