<svg xmlns="http://www.w3.org/2000/svg" version="1.1" xmlns:xlink="http://www.w3.org/1999/xlink" xmlns:svgjs="http://svgjs.dev/svgjs" viewBox="0 0 600 600"><path d="M12.172775268554688,151.5706787109375C11.256544828414917,117.01570256551108,-36.51832405726115,96.20418866475423,3.534031391143799,80.89005279541016C43.586386839548744,65.57591692606609,155.36649139722186,58.90052286783854,252.48690795898438,59.68586349487305C349.6073245207469,60.471204121907554,530.4973704020182,66.62303860982259,586.2565307617188,85.60209655761719C642.0156911214193,104.58115450541179,589.1361083984375,141.7539291381836,587.0418701171875,173.56021118164062C584.9476318359375,205.36649322509766,613.0890045166016,263.61256408691406,573.6911010742188,276.4397888183594C534.2931976318359,289.2670135498047,444.76439730326337,248.5602060953776,350.6544494628906,250.5235595703125C256.5445016225179,252.4869130452474,65.44502639770508,304.71205647786456,9.031414031982422,288.21990966796875C-47.382198333740234,271.72776285807294,13.089005708694458,186.12565485636392,12.172775268554688,151.5706787109375C11.256544828414917,117.01570256551108,-36.51832405726115,96.20418866475423,3.534031391143799,80.89005279541016" 
fill="var(--bulletColor, #ef5a5a)"
stroke-width="0" stroke="hsl(340, 45%, 30%)" transform="matrix(0.95,0,0,0.95,14.916545772552524,8.77647590637207)"></path></svg>